M48
; DRILL file {KiCad 9.0.4} date 2025-10-11T12:31:30-0500
; FORMAT={-:-/ absolute / inch / decimal}
; #@! TF.CreationDate,2025-10-11T12:31:30-05:00
; #@! TF.GenerationSoftware,Kicad,Pcbnew,9.0.4
; #@! TF.FileFunction,Plated,1,2,PTH
FMAT,2
INCH
; #@! TA.AperFunction,Plated,PTH,ViaDrill
T1C0.0118
; #@! TA.AperFunction,Plated,PTH,ComponentDrill
T2C0.0394
; #@! TA.AperFunction,Plated,PTH,ComponentDrill
T3C0.0409
; #@! TA.AperFunction,Plated,PTH,ComponentDrill
T4C0.0472
; #@! TA.AperFunction,Plated,PTH,ComponentDrill
T5C0.0630
; #@! TA.AperFunction,Plated,PTH,ComponentDrill
T6C0.1260
; #@! TA.AperFunction,Plated,PTH,ComponentDrill
T7C0.3307
%
G90
G05
T1
X4.884Y-4.325
X4.884Y-4.51
X4.884Y-4.695
X4.884Y-4.88
X4.884Y-5.065
X4.884Y-5.25
X5.029Y-3.944
X5.03Y-3.789
X5.034Y-3.598
X5.071Y-3.475
X5.136Y-5.4818
X5.228Y-3.789
X5.235Y-3.632
X5.236Y-3.474
X5.27Y-4.335
X5.27Y-4.3744
X5.27Y-4.4137
X5.2735Y-5.2735
X5.3094Y-4.335
X5.3094Y-4.3744
X5.3094Y-4.4137
X5.329Y-2.765
X5.3487Y-4.335
X5.3487Y-4.3744
X5.3487Y-4.4137
X5.367Y-2.925
X5.403Y-5.091
X5.4031Y-5.15
X5.4134Y-3.4398
X5.4186Y-3.603
X5.44Y-3.935
X5.4555Y-4.8875
X5.4579Y-3.5338
X5.471Y-2.623
X5.4719Y-5.091
X5.472Y-5.15
X5.487Y-3.4412
X5.4915Y-5.4818
X5.492Y-3.935
X5.555Y-3.745
X5.555Y-3.789
X5.565Y-2.771
X5.588Y-5.264
X5.59Y-2.692
X5.625Y-3.058
X5.659Y-5.05
X5.671Y-2.944
X5.6829Y-4.699
X5.6949Y-4.778
X5.6949Y-4.8288
X5.6949Y-4.871
X5.7309Y-4.777
X5.7309Y-4.8288
X5.7309Y-4.871
X5.75Y-4.699
X5.774Y-3.745
X5.774Y-3.789
X5.7781Y-2.9061
X5.808Y-3.009
X5.828Y-3.628
X5.828Y-3.661
X5.832Y-3.4118
X5.8471Y-5.4818
X5.8755Y-3.412
X5.883Y-3.285
X5.919Y-3.412
X5.92Y-3.2848
X5.924Y-5.207
X5.98Y-5.09
X6.0089Y-4.9418
X6.0099Y-4.876
X6.058Y-2.556
X6.091Y-2.472
X6.158Y-5.318
X6.174Y-3.378
X6.174Y-3.414
X6.188Y-4.758
X6.193Y-5.091
X6.1931Y-5.15
X6.1998Y-3.3135
X6.2026Y-5.4818
X6.2033Y-4.3796
X6.2033Y-4.419
X6.2033Y-4.4584
X6.208Y-3.378
X6.208Y-3.415
X6.2149Y-3.2704
X6.2426Y-4.3796
X6.2426Y-4.419
X6.2426Y-4.4584
X6.2619Y-5.091
X6.262Y-5.15
X6.282Y-4.3796
X6.282Y-4.419
X6.282Y-4.4584
X6.2874Y-3.7824
X6.3008Y-3.6592
X6.301Y-3.945
X6.3036Y-3.307
X6.3036Y-3.34
X6.3036Y-3.373
X6.3393Y-3.307
X6.3393Y-3.34
X6.3393Y-3.373
X6.34Y-3.854
X6.344Y-4.273
X6.346Y-4.2415
X6.354Y-3.706
X6.3728Y-3.9062
X6.375Y-3.307
X6.375Y-3.34
X6.375Y-3.373
X6.3858Y-3.7822
X6.4089Y-3.4304
X6.419Y-3.501
X6.4249Y-3.6144
X6.4414Y-2.472
X6.442Y-3.411
X6.4439Y-4.55
X6.444Y-4.512
X6.4489Y-3.5311
X6.4779Y-2.523
X6.4779Y-2.5608
X6.4834Y-5.1794
X6.52Y-4.2415
X6.521Y-4.273
X6.524Y-3.621
X6.5312Y-3.069
X6.54Y-5.271
X6.541Y-3.7745
X6.541Y-3.815
X6.541Y-3.856
X6.547Y-2.64
X6.55Y-3.648
X6.557Y-3.1314
X6.5581Y-5.4818
X6.582Y-4.311
X6.586Y-4.0368
X6.586Y-4.08
X6.615Y-3.323
X6.622Y-3.272
X6.6279Y-4.5098
X6.632Y-3.494
X6.65Y-5.091
X6.6501Y-5.15
X6.658Y-4.71
X6.658Y-4.75
X6.675Y-5.002
X6.684Y-4.428
X6.685Y-4.393
X6.697Y-4.4675
X6.718Y-4.687
X6.7189Y-5.091
X6.719Y-5.15
X6.7389Y-4.539
X6.739Y-4.574
X6.777Y-3.2645
X6.777Y-3.296
X6.8149Y-3.7728
X6.8206Y-3.11
X6.825Y-5.002
X6.828Y-4.93
X6.8285Y-3.8692
X6.838Y-4.0368
X6.838Y-4.0922
X6.8531Y-3.685
X6.868Y-3.4516
X6.869Y-4.7398
X6.869Y-4.777
X6.8699Y-3.1188
X6.8802Y-3.4044
X6.892Y-5.207
X6.912Y-4.7398
X6.912Y-4.777
X6.9137Y-5.4818
X6.9169Y-4.675
X6.9559Y-4.7398
X6.9559Y-4.777
X6.9689Y-4.675
X6.973Y-3.888
X6.9789Y-3.0628
X7.0Y-3.505
X7.0Y-3.54
X7.015Y-3.9998
X7.021Y-4.675
X7.038Y-3.309
X7.0391Y-3.3899
X7.073Y-4.675
X7.1Y-5.091
X7.1001Y-5.15
X7.114Y-3.22
X7.114Y-3.263
X7.115Y-3.685
X7.117Y-4.266
X7.118Y-5.268
X7.1255Y-4.2185
X7.142Y-3.636
X7.1436Y-2.436
X7.1689Y-5.091
X7.169Y-5.15
X7.184Y-3.747
X7.206Y-3.512
X7.213Y-3.733
X7.2138Y-3.584
X7.2229Y-2.6438
X7.2692Y-5.4818
X7.284Y-2.738
X7.286Y-2.549
X7.342Y-2.794
X7.3819Y-3.0428
X7.3822Y-2.939
X7.39Y-3.735
X7.3979Y-3.8858
X7.3989Y-3.8058
X7.42Y-2.733
X7.434Y-2.935
X7.471Y-4.336
X7.471Y-4.4738
X7.471Y-4.6116
X7.471Y-4.7494
X7.471Y-4.8872
X7.523Y-5.077
X7.523Y-5.256
T2
X7.287Y-4.093
X7.2879Y-4.2499
X7.387Y-4.093
X7.3879Y-4.2499
T3
X6.2421Y-3.6965
X6.2421Y-3.8658
X6.4311Y-3.6965
X6.4311Y-3.8658
T4
X5.0279Y-4.2524
X5.0279Y-4.3508
X5.0279Y-4.4492
X5.0279Y-4.5476
X5.0279Y-4.7831
X5.0279Y-4.8816
X5.0279Y-4.98
X5.0279Y-5.0784
X5.6719Y-2.4485
X5.7415Y-2.5181
X6.2359Y-3.0
X6.3343Y-3.0
X6.4328Y-3.0
X6.5312Y-3.0
T5
X5.882Y-3.121
X6.712Y-2.366
X6.952Y-2.366
X7.46Y-5.166
T6
X4.557Y-2.758
X4.96Y-5.405
X4.9641Y-3.166
X5.342Y-1.973
X7.448Y-2.403
X7.448Y-5.404
T7
X4.1143Y-3.2007
X5.7847Y-1.5303
M30
